<svg xmlns="http://www.w3.org/2000/svg" xmlns:xlink="http://www.w3.org/1999/xlink" width="454" zoomAndPan="magnify" viewBox="0 0 340.5 340.499998" height="454" preserveAspectRatio="xMidYMid meet" version="1.0"><path fill="#245d57" d="M 251.453125 42.5 C 276.878906 42.5 297.492188 63.113281 297.492188 88.539062 L 297.492188 251.453125 C 297.492188 276.878906 276.878906 297.492188 251.453125 297.492188 L 88.539062 297.492188 C 63.113281 297.492188 42.5 276.878906 42.5 251.453125 L 42.5 88.539062 C 42.5 63.113281 63.113281 42.5 88.539062 42.5 Z M 251.453125 63.75 L 88.539062 63.75 C 74.847656 63.75 63.75 74.847656 63.75 88.539062 L 63.75 251.453125 C 63.75 265.144531 74.847656 276.242188 88.539062 276.242188 L 251.453125 276.242188 C 265.144531 276.242188 276.242188 265.144531 276.242188 251.453125 L 276.242188 88.539062 C 276.242188 74.847656 265.144531 63.75 251.453125 63.75 Z M 132.71875 216.09375 L 125.503906 228.449219 C 122.546875 233.519531 116.039062 235.226562 110.972656 232.265625 C 106.328125 229.550781 104.503906 223.859375 106.511719 219.027344 L 107.15625 217.730469 L 108.097656 216.09375 Z M 188.308594 142.003906 L 212.660156 184.21875 L 237.3125 184.230469 C 242.691406 184.230469 247.136719 188.230469 247.839844 193.414062 L 247.9375 194.855469 C 247.9375 200.234375 243.941406 204.679688 238.753906 205.382812 L 237.3125 205.480469 L 224.914062 205.46875 L 232.027344 217.796875 C 234.960938 222.878906 233.21875 229.375 228.136719 232.308594 C 223.476562 234.996094 217.628906 233.753906 214.425781 229.613281 L 213.621094 228.414062 L 175.96875 163.140625 Z M 187.890625 100.601562 C 192.535156 103.316406 194.355469 109.007812 192.347656 113.839844 L 191.703125 115.136719 L 151.332031 184.21875 L 175.859375 184.230469 L 188.113281 205.480469 L 102.726562 205.480469 C 96.859375 205.480469 92.101562 200.726562 92.101562 194.855469 C 92.101562 189.476562 96.101562 185.03125 101.285156 184.328125 L 102.726562 184.230469 L 126.726562 184.230469 L 157.621094 131.335938 L 148.238281 115.085938 C 145.550781 110.425781 146.789062 104.578125 150.929688 101.378906 L 152.132812 100.574219 C 156.789062 97.882812 162.640625 99.125 165.839844 103.265625 L 166.644531 104.464844 L 169.945312 110.214844 L 173.355469 104.417969 C 176.316406 99.347656 182.824219 97.640625 187.890625 100.601562 Z M 187.890625 100.601562 " fill-opacity="1" fill-rule="nonzero"/></svg>